<?xml version="1.0" encoding="utf-8"?>
<!-- Generator: Adobe Illustrator 16.0.4, SVG Export Plug-In . SVG Version: 6.00 Build 0)  -->
<!DOCTYPE svg PUBLIC "-//W3C//DTD SVG 1.1//EN" "http://www.w3.org/Graphics/SVG/1.1/DTD/svg11.dtd">
<svg version="1.1" id="Logo" xmlns="http://www.w3.org/2000/svg" xmlns:xlink="http://www.w3.org/1999/xlink" x="0px" y="0px"
	 width="187.417px" height="78.808px" viewBox="0 0 187.417 78.808" enable-background="new 0 0 187.417 78.808"
	 xml:space="preserve">
<g>
	<path d="M39.756,30.81c0.088-0.353,0.229-0.619,0.424-0.795c0.194-0.176,0.415-0.265,0.663-0.265c0.229,0,0.446,0.08,0.649,0.239
		s0.349,0.407,0.438,0.742c0,2.529-0.018,4.977-0.053,7.346c-0.036,2.369-0.124,4.818-0.265,7.346l0.026,0.026h-0.026
		c-0.018,0.089-0.026,0.164-0.026,0.226c0,0.062,0,0.128,0,0.199c-0.106,0.283-0.252,0.495-0.438,0.637
		c-0.186,0.141-0.384,0.212-0.597,0.212c-0.318,0-0.619-0.142-0.901-0.424c-0.036-0.07-0.071-0.132-0.106-0.186
		c-0.036-0.053-0.071-0.106-0.106-0.159h-0.026V45.9c-0.637-1.078-1.291-2.108-1.962-3.09c-0.672-0.981-1.362-1.944-2.068-2.891
		c-0.708-0.945-1.428-1.883-2.162-2.811c-0.734-0.928-1.49-1.878-2.267-2.851c0,0.937,0,1.843,0,2.718s0,1.759,0,2.652
		c0,0.893,0.004,1.826,0.013,2.798c0.009,0.973,0.013,2.024,0.013,3.156c-0.018,0.407-0.137,0.712-0.358,0.915
		c-0.221,0.203-0.464,0.305-0.729,0.305c-0.248,0-0.477-0.093-0.689-0.278c-0.212-0.186-0.345-0.473-0.398-0.862
		c0-2.387-0.004-4.804-0.013-7.253s-0.013-4.867-0.013-7.253c0.07-0.318,0.203-0.565,0.398-0.742
		c0.194-0.177,0.415-0.265,0.663-0.265s0.513,0.097,0.796,0.292c0.813,0.973,1.608,1.923,2.387,2.851
		c0.778,0.928,1.542,1.861,2.294,2.797c0.751,0.938,1.48,1.896,2.188,2.877c0.707,0.981,1.396,2.002,2.068,3.063
		c0.07-1.944,0.119-3.81,0.146-5.596C39.743,34.647,39.756,32.772,39.756,30.81z"/>
	<path d="M46.73,45.29c-0.018,0.407-0.137,0.711-0.358,0.915c-0.221,0.203-0.464,0.305-0.729,0.305
		c-0.248,0-0.486-0.098-0.716-0.292c-0.23-0.194-0.372-0.486-0.424-0.875c0.017-2.298,0.026-4.579,0.026-6.842
		s-0.009-4.623-0.026-7.081c0.088-0.354,0.229-0.619,0.424-0.796c0.194-0.176,0.415-0.265,0.663-0.265c0.23,0,0.446,0.08,0.65,0.239
		c0.203,0.159,0.349,0.407,0.438,0.743c0,1.007-0.004,1.971-0.013,2.891c-0.009,0.919-0.013,1.892-0.013,2.917
		c0.778-0.336,1.445-0.716,2.002-1.141c0.557-0.424,1.074-0.897,1.552-1.418c0.477-0.521,0.955-1.096,1.432-1.724
		c0.477-0.627,1.025-1.304,1.644-2.029c0.283-0.229,0.574-0.345,0.875-0.345c0.283,0,0.521,0.097,0.716,0.292
		c0.194,0.195,0.292,0.442,0.292,0.743c0,0.159-0.044,0.354-0.133,0.583c-0.53,0.619-1.007,1.198-1.432,1.737
		c-0.424,0.54-0.84,1.047-1.247,1.525c-0.407,0.478-0.818,0.924-1.233,1.339s-0.871,0.8-1.366,1.153
		c1.043,1.114,2.078,2.214,3.103,3.302c1.025,1.087,2.051,2.188,3.076,3.302c0.194,0.248,0.292,0.521,0.292,0.822
		s-0.097,0.543-0.292,0.729c-0.195,0.186-0.434,0.278-0.716,0.278c-0.142,0-0.296-0.03-0.464-0.093
		c-0.168-0.062-0.323-0.172-0.464-0.332c-0.124-0.141-0.354-0.389-0.689-0.742c-0.336-0.354-0.721-0.765-1.154-1.233
		c-0.434-0.468-0.893-0.963-1.379-1.485c-0.486-0.521-0.946-1.017-1.379-1.485c-0.434-0.468-0.818-0.879-1.154-1.233
		c-0.336-0.354-0.566-0.601-0.689-0.743c-0.336,0.159-0.743,0.327-1.22,0.504c0,1.025,0.008,2.002,0.026,2.93
		C46.668,43.314,46.695,44.282,46.73,45.29z"/>
	<path d="M68.556,30.824c0.194-0.168,0.415-0.252,0.663-0.252c0.142,0,0.248,0.018,0.318,0.053c0.672-0.3,1.379-0.548,2.122-0.743
		c0.743-0.194,1.485-0.292,2.228-0.292c0.495,0,0.977,0.049,1.445,0.146s0.924,0.27,1.366,0.517c0.478,0.248,0.911,0.566,1.3,0.955
		c0.389,0.389,0.716,0.818,0.981,1.286c0.265,0.469,0.473,0.968,0.623,1.499s0.226,1.061,0.226,1.591
		c0,1.026-0.274,1.972-0.822,2.838c-0.583,0.901-1.299,1.622-2.148,2.161c-0.849,0.54-1.821,0.854-2.917,0.941
		c-0.212,0.018-0.429,0.031-0.65,0.04s-0.429,0.013-0.623,0.013c-0.407,0-0.805-0.018-1.193-0.053
		c-0.389-0.035-0.778-0.08-1.167-0.132c0,0.672,0,1.432,0,2.281c0,0.848,0.009,1.609,0.027,2.28
		c-0.018,0.407-0.137,0.711-0.358,0.915c-0.221,0.203-0.464,0.305-0.729,0.305c-0.248,0-0.478-0.093-0.689-0.279
		c-0.212-0.186-0.345-0.473-0.398-0.862v-5.171c-0.053,0-0.115-0.017-0.186-0.053c-0.265-0.142-0.46-0.309-0.583-0.504
		c-0.124-0.194-0.186-0.389-0.186-0.583c0-0.229,0.08-0.438,0.239-0.623c0.159-0.186,0.389-0.314,0.689-0.385v-7.107
		C68.219,31.252,68.361,30.992,68.556,30.824z M75.663,32.163c-0.548-0.282-1.149-0.424-1.803-0.424
		c-0.619,0-1.238,0.093-1.856,0.279c-0.619,0.186-1.185,0.402-1.697,0.649v6.524c0.372,0.088,0.743,0.155,1.114,0.199
		c0.372,0.044,0.751,0.066,1.141,0.066c0.371,0,0.742-0.026,1.114-0.08c0.513-0.088,1.021-0.216,1.525-0.384s0.95-0.455,1.339-0.862
		c0.354-0.389,0.619-0.813,0.796-1.273c0.176-0.459,0.265-0.919,0.265-1.379c0-0.671-0.164-1.304-0.491-1.896
		S76.299,32.517,75.663,32.163z"/>
	<path d="M80.887,39.854c0.194-0.566,0.433-1.118,0.716-1.658c0.283-0.539,0.619-1.03,1.008-1.472
		c0.389-0.442,0.835-0.822,1.339-1.141c0.504-0.318,1.065-0.547,1.684-0.689c1.025-0.229,1.923-0.15,2.692,0.239
		c0.769,0.389,1.383,0.946,1.843,1.671c0.459,0.725,0.764,1.551,0.915,2.479c0.15,0.928,0.11,1.816-0.119,2.665
		c-0.265,1.043-0.734,2.016-1.406,2.917c-0.672,0.901-1.521,1.555-2.546,1.962c-0.76,0.3-1.489,0.411-2.188,0.332
		c-0.699-0.08-1.326-0.305-1.883-0.676c-0.557-0.372-1.03-0.857-1.419-1.459c-0.389-0.601-0.654-1.281-0.795-2.042
		c-0.089-0.477-0.12-0.945-0.093-1.405c0.026-0.459,0.083-0.919,0.172-1.379L80.887,39.854z M82.956,40.463
		c-0.071,0.371-0.12,0.712-0.146,1.021c-0.026,0.31-0.013,0.659,0.04,1.047c0.053,0.478,0.203,0.906,0.451,1.286
		c0.247,0.38,0.548,0.672,0.901,0.875s0.747,0.301,1.18,0.292c0.433-0.009,0.871-0.146,1.313-0.411
		c0.583-0.354,1.047-0.813,1.392-1.379c0.345-0.565,0.605-1.176,0.782-1.83c0.142-0.53,0.172-1.096,0.093-1.697
		c-0.08-0.601-0.261-1.131-0.543-1.591c-0.283-0.459-0.663-0.791-1.14-0.995c-0.478-0.203-1.043-0.172-1.697,0.093
		c-0.708,0.301-1.265,0.752-1.671,1.353C83.503,39.128,83.185,39.774,82.956,40.463z"/>
	<path d="M93.881,37.122c-0.265-0.142-0.46-0.31-0.583-0.504c-0.124-0.194-0.186-0.389-0.186-0.583c0-0.265,0.097-0.5,0.292-0.703
		c0.194-0.203,0.459-0.305,0.795-0.305c0.248,0,0.557,0.089,0.928,0.265c0.371,0.177,0.663,0.371,0.875,0.583
		c0.548-0.459,1.114-0.839,1.698-1.14s1.176-0.451,1.777-0.451c0.176,0,0.432,0.044,0.768,0.133s0.668,0.221,0.994,0.397
		c0.328,0.177,0.615,0.407,0.863,0.69c0.246,0.283,0.371,0.61,0.371,0.981c0,0.301-0.098,0.543-0.293,0.729
		c-0.193,0.186-0.432,0.278-0.715,0.278c-0.195,0-0.367-0.057-0.518-0.172c-0.15-0.115-0.301-0.239-0.451-0.371
		c-0.15-0.133-0.309-0.252-0.477-0.358c-0.168-0.106-0.357-0.159-0.57-0.159c-0.248,0-0.518,0.076-0.809,0.226
		c-0.293,0.15-0.584,0.332-0.875,0.543c-0.292,0.212-0.571,0.442-0.836,0.69s-0.495,0.468-0.689,0.663v7.054
		c-0.018,0.407-0.137,0.712-0.358,0.915c-0.221,0.203-0.464,0.305-0.729,0.305c-0.248,0-0.477-0.093-0.689-0.279
		c-0.212-0.186-0.345-0.473-0.397-0.862v-7.24c0-0.035-0.005-0.075-0.014-0.119c-0.009-0.044-0.013-0.084-0.013-0.12
		c0-0.035,0.004-0.075,0.013-0.119c0.009-0.044,0.014-0.083,0.014-0.119v-0.77C93.996,37.166,93.934,37.14,93.881,37.122z"/>
	<path d="M104.635,36.618c-0.187-0.212-0.279-0.442-0.279-0.689s0.102-0.491,0.306-0.729c0.203-0.239,0.508-0.358,0.915-0.358h1.484
		v-4.19c0.089-0.354,0.229-0.619,0.425-0.796c0.194-0.176,0.415-0.265,0.663-0.265c0.229,0,0.446,0.08,0.649,0.239
		s0.349,0.407,0.438,0.743v4.27h2.546c0.336,0.088,0.583,0.234,0.742,0.438c0.159,0.204,0.239,0.42,0.239,0.65
		c0,0.248-0.089,0.468-0.266,0.663c-0.177,0.195-0.442,0.336-0.795,0.424h-2.467c-0.018,1.362-0.018,2.763,0,4.204
		s0.026,2.842,0.026,4.203c0,0.407-0.119,0.712-0.357,0.915c-0.239,0.203-0.482,0.305-0.729,0.305c-0.248,0-0.478-0.093-0.689-0.278
		s-0.345-0.473-0.398-0.862c0-1.379-0.004-2.793-0.013-4.243c-0.009-1.449-0.014-2.864-0.014-4.243h-1.564
		C105.107,36.963,104.82,36.83,104.635,36.618z"/>
	<path d="M118.637,46.47c-0.221,0.203-0.464,0.305-0.729,0.305c-0.247,0-0.477-0.093-0.689-0.278
		c-0.212-0.186-0.345-0.473-0.397-0.862v-7.532h-0.557c-0.39-0.053-0.677-0.186-0.862-0.398c-0.186-0.212-0.278-0.441-0.278-0.689
		c0-0.247,0.102-0.49,0.305-0.729s0.509-0.358,0.915-0.358h0.478v-2.97c0-0.619,0.097-1.193,0.292-1.724
		c0.194-0.53,0.464-0.985,0.809-1.366c0.345-0.38,0.756-0.676,1.233-0.888c0.478-0.212,1.008-0.318,1.591-0.318
		c0.247,0,0.57,0.04,0.968,0.12c0.398,0.079,0.782,0.199,1.154,0.358c0.371,0.159,0.693,0.358,0.968,0.597
		c0.273,0.239,0.411,0.517,0.411,0.835c0,0.283-0.098,0.521-0.292,0.716c-0.194,0.195-0.442,0.292-0.742,0.292
		c-0.178,0-0.363-0.04-0.558-0.119s-0.397-0.163-0.609-0.252c-0.212-0.088-0.434-0.172-0.663-0.252
		c-0.23-0.08-0.451-0.119-0.663-0.119c-0.46,0-0.835,0.155-1.127,0.464c-0.292,0.31-0.491,0.8-0.597,1.472v3.103
		c0.494-0.018,1.029-0.031,1.604-0.04c0.574-0.008,1.118-0.022,1.631-0.04c0.336,0.089,0.583,0.234,0.742,0.438
		c0.159,0.204,0.239,0.42,0.239,0.65c0,0.354-0.15,0.61-0.451,0.769s-0.672,0.265-1.114,0.318c-0.441,0.053-0.901,0.075-1.379,0.066
		c-0.477-0.009-0.901-0.004-1.272,0.013v7.505C118.978,45.962,118.857,46.267,118.637,46.47z"/>
	<path d="M124.086,39.854c0.194-0.566,0.434-1.118,0.716-1.658c0.283-0.539,0.619-1.03,1.008-1.472s0.836-0.822,1.34-1.141
		c0.504-0.318,1.064-0.547,1.684-0.689c1.025-0.229,1.923-0.15,2.691,0.239c0.77,0.389,1.384,0.946,1.844,1.671
		c0.459,0.725,0.765,1.551,0.915,2.479c0.149,0.928,0.11,1.816-0.12,2.665c-0.265,1.043-0.733,2.016-1.405,2.917
		c-0.672,0.901-1.521,1.555-2.546,1.962c-0.76,0.3-1.489,0.411-2.188,0.332c-0.699-0.08-1.326-0.305-1.883-0.676
		c-0.557-0.372-1.03-0.857-1.419-1.459c-0.389-0.601-0.654-1.281-0.796-2.042c-0.089-0.477-0.119-0.945-0.093-1.405
		c0.026-0.459,0.084-0.919,0.173-1.379L124.086,39.854z M126.154,40.463c-0.07,0.371-0.119,0.712-0.146,1.021
		c-0.026,0.31-0.014,0.659,0.04,1.047c0.053,0.478,0.203,0.906,0.45,1.286c0.248,0.38,0.548,0.672,0.902,0.875
		c0.354,0.203,0.746,0.301,1.18,0.292c0.434-0.009,0.871-0.146,1.312-0.411c0.584-0.354,1.048-0.813,1.393-1.379
		c0.345-0.565,0.605-1.176,0.782-1.83c0.142-0.53,0.173-1.096,0.093-1.697c-0.079-0.601-0.261-1.131-0.544-1.591
		c-0.282-0.459-0.662-0.791-1.14-0.995c-0.478-0.203-1.044-0.172-1.697,0.093c-0.707,0.301-1.265,0.752-1.671,1.353
		C126.702,39.128,126.384,39.774,126.154,40.463z"/>
	<path d="M139.202,45.078c0.318,0.23,0.504,0.491,0.558,0.782c0.053,0.292,0.013,0.544-0.12,0.756
		c-0.132,0.212-0.336,0.362-0.609,0.451c-0.274,0.088-0.588,0.044-0.941-0.132c-0.159-0.106-0.318-0.212-0.478-0.318
		s-0.327-0.212-0.504-0.318c-0.159-0.141-0.266-0.274-0.318-0.397s-0.098-0.301-0.133-0.531V30.651
		c0.071-0.336,0.208-0.592,0.411-0.77c0.203-0.176,0.415-0.269,0.637-0.278c0.221-0.009,0.438,0.066,0.649,0.226
		c0.213,0.159,0.372,0.407,0.478,0.743v14.267c0.053,0.036,0.11,0.076,0.173,0.12C139.065,45.002,139.132,45.042,139.202,45.078z"/>
	<path d="M142.411,31.076c0-0.389,0.123-0.72,0.371-0.995c0.248-0.274,0.548-0.411,0.902-0.411c0.353,0,0.658,0.137,0.914,0.411
		c0.257,0.274,0.385,0.606,0.385,0.995c0,0.371-0.128,0.694-0.385,0.968c-0.256,0.274-0.562,0.411-0.914,0.411
		c-0.354,0-0.654-0.137-0.902-0.411C142.534,31.77,142.411,31.447,142.411,31.076z M144.851,45.502
		c-0.018,0.407-0.137,0.712-0.357,0.915c-0.222,0.203-0.464,0.305-0.729,0.305c-0.248,0-0.478-0.093-0.689-0.278
		s-0.345-0.473-0.397-0.862c-0.019-1.662-0.031-3.359-0.04-5.092c-0.009-1.732-0.022-3.43-0.04-5.092
		c0.089-0.354,0.229-0.619,0.425-0.795c0.194-0.177,0.415-0.265,0.663-0.265c0.229,0,0.445,0.08,0.649,0.239
		c0.203,0.159,0.349,0.407,0.438,0.742c0.018,1.662,0.03,3.359,0.04,5.092C144.82,42.143,144.833,43.84,144.851,45.502z"/>
	<path d="M147.927,39.854c0.194-0.566,0.434-1.118,0.716-1.658c0.283-0.539,0.619-1.03,1.008-1.472s0.836-0.822,1.34-1.141
		c0.504-0.318,1.064-0.547,1.684-0.689c1.025-0.229,1.923-0.15,2.691,0.239c0.77,0.389,1.384,0.946,1.844,1.671
		c0.459,0.725,0.765,1.551,0.915,2.479c0.149,0.928,0.11,1.816-0.12,2.665c-0.265,1.043-0.733,2.016-1.405,2.917
		c-0.672,0.901-1.521,1.555-2.546,1.962c-0.76,0.3-1.489,0.411-2.188,0.332c-0.699-0.08-1.326-0.305-1.883-0.676
		c-0.557-0.372-1.03-0.857-1.419-1.459c-0.389-0.601-0.654-1.281-0.796-2.042c-0.089-0.477-0.119-0.945-0.093-1.405
		c0.026-0.459,0.084-0.919,0.173-1.379L147.927,39.854z M149.995,40.463c-0.07,0.371-0.119,0.712-0.146,1.021
		c-0.026,0.31-0.014,0.659,0.04,1.047c0.053,0.478,0.203,0.906,0.45,1.286c0.248,0.38,0.548,0.672,0.902,0.875
		c0.354,0.203,0.746,0.301,1.18,0.292c0.434-0.009,0.871-0.146,1.312-0.411c0.584-0.354,1.048-0.813,1.393-1.379
		c0.345-0.565,0.605-1.176,0.782-1.83c0.142-0.53,0.173-1.096,0.093-1.697c-0.079-0.601-0.261-1.131-0.544-1.591
		c-0.282-0.459-0.662-0.791-1.14-0.995c-0.478-0.203-1.044-0.172-1.697,0.093c-0.707,0.301-1.265,0.752-1.671,1.353
		C150.543,39.128,150.225,39.774,149.995,40.463z"/>
</g>
<g>
	<path fill="#231F20" d="M23.685,53.386c3.066-0.097,6.132-0.184,9.199-0.226c3.083-0.049,6.167-0.111,9.25-0.119l9.25-0.048
		c3.083,0.02,6.167,0.019,9.25,0.086l-0.358,0.358l0.127-7.417c0.054-2.472,0.044-4.944,0.07-7.417
		c0.024-2.472-0.015-4.944-0.02-7.417l-0.093-7.417l0.274,0.274c-6.167,0.107-12.333,0.18-18.5,0.208l-9.25,0.047l-9.25-0.022
		l0.507-0.507c-0.003,4.945-0.091,9.889-0.138,14.833l-0.132,7.417L23.685,53.386z M23.584,53.486l-0.188-7.465l-0.132-7.417
		c-0.047-4.944-0.135-9.889-0.138-14.833l0-0.506l0.507-0.001l9.25-0.022l9.25,0.047c6.167,0.028,12.333,0.1,18.5,0.208l0.277,0.005
		l-0.003,0.269l-0.093,7.417c-0.005,2.472-0.044,4.944-0.02,7.417c0.025,2.472,0.016,4.944,0.07,7.417l0.127,7.417l0.006,0.35
		l-0.364,0.008c-3.083,0.068-6.167,0.066-9.25,0.086l-9.25-0.048c-3.083-0.008-6.167-0.07-9.25-0.119
		c-3.083-0.042-6.167-0.13-9.25-0.228L23.584,53.486z"/>
</g>
</svg>
